<svg id="Capa_1" enable-background="new 0 0 508.411 508.411" height="512" viewBox="0 0 508.411 508.411" width="512" xmlns="http://www.w3.org/2000/svg"><g><g><g><g><path d="m149.254 13.215s-82.373 119.507-82.373 165 36.88 82.373 82.373 82.373 82.373-36.88 82.373-82.373c0-46.577-82.373-165-82.373-165z" fill="#d7fff6"/></g><g><path d="m166.159 243.683c-45.493 0-82.373-36.88-82.373-82.373 0-33.574 44.858-107.448 68.367-143.86-1.85-2.725-2.899-4.235-2.899-4.235s-82.373 119.507-82.373 165 36.88 82.373 82.373 82.373c27.059 0 51.068-13.049 66.084-33.195-13.725 10.232-30.744 16.29-49.179 16.29z" fill="#a4d7f5"/></g><g><g><path d="m120.626 134.709-13.685-6.144c2.276-5.07 4.698-10.036 6.552-13.795l13.452 6.638c-1.798 3.645-4.141 8.451-6.319 13.301z" fill="#fff"/></g><g><path d="m133.692 108.283-13.23-7.067c2.583-4.836 4.956-9.185 7.255-13.294l13.091 7.322c-2.251 4.025-4.579 8.29-7.116 13.039z" fill="#fff"/></g></g><g><path d="m441.294 388.411c0 62.132-50.368 112.5-112.5 112.5s-112.5-50.368-112.5-112.5 112.5-240.196 112.5-240.196 112.5 178.064 112.5 240.196z" fill="#a4d7f5"/></g><g><path d="m344.749 482.954c-62.132 0-112.5-50.368-112.5-112.5 0-48.72 69.17-168.717 99.034-218.256-1.605-2.583-2.489-3.983-2.489-3.983s-112.5 178.064-112.5 240.196 50.368 112.5 112.5 112.5c37.783 0 71.214-18.628 91.616-47.199-19.981 18.168-46.528 29.242-75.661 29.242z" fill="#6e91ef"/></g><g><g><path d="m276.409 320.969-13.624-6.275c1.729-3.753 4.022-8.703 6.438-13.701l13.506 6.526c-2.362 4.887-4.619 9.755-6.32 13.45z" fill="#fff"/></g><g><path d="m264.083 348.354-13.624-6.275c1.73-3.755 4.025-8.707 6.438-13.701l13.506 6.525c-2.36 4.885-4.617 9.754-6.32 13.451z" fill="#fff"/></g><g><path d="m289.283 294.15-13.407-6.727c2.517-5.018 4.757-9.418 6.848-13.455l13.319 6.899c-2.061 3.98-4.273 8.324-6.76 13.283z" fill="#fff"/></g></g></g></g><g><g><path d="m149.254 268.088c-55.547 0-101.735-54.317-86.795-109.161 6.184-22.702 17.205-44.187 28.342-64.793 11.165-20.659 23.32-40.784 35.997-60.547 7.274-11.343 14.809-22.494 22.456-33.587 15.324 22.231 29.998 44.887 43.728 68.144l-12.917 7.625c-12.162-20.601-23.946-38.769-30.83-49.144-17.527 26.314-34.073 53.408-48.808 81.389-12.103 22.982-28.442 50.972-25.647 77.966 3.45 33.324 29.806 61.063 62.91 66.217 33.403 5.201 66.986-13.406 80.362-44.44 13.969-32.41-1.314-63.292-16.131-92.446l13.372-6.796c9.226 18.153 18.603 37.38 22.517 57.525 3.06 15.752.469 32.43-5.756 47.124-13.939 32.899-47.06 54.924-82.8 54.924z"/></g><g><path d="m194.938 102.015c-2.266-4.191-4.69-8.565-7.206-13.002l13.048-7.399c2.566 4.525 5.04 8.989 7.354 13.268z"/></g><g><path d="m328.794 508.411c-66.168 0-120-53.832-120-120 0-63.572 109.019-236.856 113.66-244.202l6.34-10.036 6.34 10.036c4.641 7.345 113.66 180.629 113.66 244.202 0 66.169-53.832 120-120 120zm0-345.951c-23.615 38.532-105 175.03-105 225.951 0 57.897 47.103 105 105 105s105-47.103 105-105c0-50.921-81.385-187.419-105-225.951z"/></g><g><path d="m328.794 508.411c-77.895 0-136.115-76.16-114.648-150.773 8.979-31.209 23.34-60.967 37.986-89.843 14.818-29.215 30.836-57.823 47.495-86.025 9.467-16.027 19.227-31.862 29.168-47.597 24.987 39.55 48.72 79.918 70.371 121.399 15.453 29.606 30.411 59.932 41.025 91.663 10.39 31.06 11.626 61.414-2.652 91.902-19.566 41.777-62.596 69.274-108.745 69.274zm0-345.951c-26.689 43.547-52.168 88.085-74.205 134.183-11.174 23.376-22.339 47.637-28.235 72.983-6.067 26.082-.109 53.755 14.488 76.085 35.95 54.995 115.656 63.419 162.163 16.912 20.432-20.432 33.268-50.751 30.492-79.901-2.183-22.925-12.211-45.52-21.405-66.343-23.54-53.315-52.871-104.273-83.298-153.919z"/></g></g></g></svg>